<svg class="border shadow-md" viewBox="0 0 1351.68 675.84" style="width: 1351.68px; height: 675.84px;" xmlns="http://www.w3.org/2000/svg" preserveAspectRatio="none"><rect class="bg" id="bg" x="0" y="0" width="1351.68" height="675.84" fill="#ffffff"></rect><g transform="
        translate(-2737.1520000000005
        -1520.64)
        scale(5.65)
                        "><path d="M1025,853.5Q881,1031,671.5,1038.5Q462,1046,261,861Q60,676,230,437.5Q400,199,678.5,194Q957,189,1063,432.5Q1169,676,1025,853.5Z" fill="#d3b1c8" stroke="none" stroke-width="10"></path></g><g transform="
        translate(-2547.9168000000004
        -1426.0224)
        scale(5.37)
                        "><path d="M1025,853.5Q881,1031,671.5,1038.5Q462,1046,261,861Q60,676,230,437.5Q400,199,678.5,194Q957,189,1063,432.5Q1169,676,1025,853.5Z" fill="#d4b4c8" stroke="none" stroke-width="10"></path></g><g transform="
        translate(-2351.9232
        -1328.0256)
        scale(5.08)
                        "><path d="M1025,853.5Q881,1031,671.5,1038.5Q462,1046,261,861Q60,676,230,437.5Q400,199,678.5,194Q957,189,1063,432.5Q1169,676,1025,853.5Z" fill="#d5b7c8" stroke="none" stroke-width="10"></path></g><g transform="
        translate(-2162.688
        -1233.408)
        scale(4.80)
                        "><path d="M1025,853.5Q881,1031,671.5,1038.5Q462,1046,261,861Q60,676,230,437.5Q400,199,678.5,194Q957,189,1063,432.5Q1169,676,1025,853.5Z" fill="#d6bac8" stroke="none" stroke-width="10"></path></g><g transform="
        translate(-1973.4528
        -1138.7903999999999)
        scale(4.52)
                        "><path d="M1025,853.5Q881,1031,671.5,1038.5Q462,1046,261,861Q60,676,230,437.5Q400,199,678.5,194Q957,189,1063,432.5Q1169,676,1025,853.5Z" fill="#d7bdc8" stroke="none" stroke-width="10"></path></g><g transform="
        translate(-1784.2176000000004
        -1044.1728)
        scale(4.24)
                        "><path d="M1025,853.5Q881,1031,671.5,1038.5Q462,1046,261,861Q60,676,230,437.5Q400,199,678.5,194Q957,189,1063,432.5Q1169,676,1025,853.5Z" fill="#d8c0c8" stroke="none" stroke-width="10"></path></g><g transform="
        translate(-1588.2240000000002
        -946.1760000000002)
        scale(3.95)
                        "><path d="M1025,853.5Q881,1031,671.5,1038.5Q462,1046,261,861Q60,676,230,437.5Q400,199,678.5,194Q957,189,1063,432.5Q1169,676,1025,853.5Z" fill="#d9c3c8" stroke="none" stroke-width="10"></path></g><g transform="
        translate(-1398.9888
        -851.5584)
        scale(3.67)
                        "><path d="M1025,853.5Q881,1031,671.5,1038.5Q462,1046,261,861Q60,676,230,437.5Q400,199,678.5,194Q957,189,1063,432.5Q1169,676,1025,853.5Z" fill="#dac6c8" stroke="none" stroke-width="10"></path></g><g transform="
        translate(-1209.7536
        -756.9408000000001)
        scale(3.39)
                        "><path d="M1025,853.5Q881,1031,671.5,1038.5Q462,1046,261,861Q60,676,230,437.5Q400,199,678.5,194Q957,189,1063,432.5Q1169,676,1025,853.5Z" fill="#dbc9c8" stroke="none" stroke-width="10"></path></g><g transform="
        translate(-1020.5184
        -662.3232)
        scale(3.11)
                        "><path d="M1025,853.5Q881,1031,671.5,1038.5Q462,1046,261,861Q60,676,230,437.5Q400,199,678.5,194Q957,189,1063,432.5Q1169,676,1025,853.5Z" fill="#dcccc8" stroke="none" stroke-width="10"></path></g><g transform="
        translate(-824.5248
        -564.3264)
        scale(2.82)
                        "><path d="M1025,853.5Q881,1031,671.5,1038.5Q462,1046,261,861Q60,676,230,437.5Q400,199,678.5,194Q957,189,1063,432.5Q1169,676,1025,853.5Z" fill="#ddcfc8" stroke="none" stroke-width="10"></path></g><g transform="
        translate(-635.2896
        -469.7088)
        scale(2.54)
                        "><path d="M1025,853.5Q881,1031,671.5,1038.5Q462,1046,261,861Q60,676,230,437.5Q400,199,678.5,194Q957,189,1063,432.5Q1169,676,1025,853.5Z" fill="#ded2c8" stroke="none" stroke-width="10"></path></g><g transform="
        translate(-446.0543999999999
        -375.09119999999996)
        scale(2.26)
                        "><path d="M1025,853.5Q881,1031,671.5,1038.5Q462,1046,261,861Q60,676,230,437.5Q400,199,678.5,194Q957,189,1063,432.5Q1169,676,1025,853.5Z" fill="#dfd5c8" stroke="none" stroke-width="10"></path></g><g transform="
        translate(-256.8192
        -280.47360000000003)
        scale(1.98)
                        "><path d="M1025,853.5Q881,1031,671.5,1038.5Q462,1046,261,861Q60,676,230,437.5Q400,199,678.5,194Q957,189,1063,432.5Q1169,676,1025,853.5Z" fill="#e0d8c8" stroke="none" stroke-width="10"></path></g><g transform="
        translate(-60.82559999999995
        -182.47679999999997)
        scale(1.69)
                        "><path d="M1025,853.5Q881,1031,671.5,1038.5Q462,1046,261,861Q60,676,230,437.5Q400,199,678.5,194Q957,189,1063,432.5Q1169,676,1025,853.5Z" fill="#e1dbc8" stroke="none" stroke-width="10"></path></g><g transform="
        translate(128.40960000000007
        -87.85919999999997)
        scale(1.41)
                        "><path d="M1025,853.5Q881,1031,671.5,1038.5Q462,1046,261,861Q60,676,230,437.5Q400,199,678.5,194Q957,189,1063,432.5Q1169,676,1025,853.5Z" fill="#e2dec8" stroke="none" stroke-width="10"></path></g><g transform="
        translate(317.6448000000001
        6.758400000000037)
        scale(1.13)
                        "><path d="M1025,853.5Q881,1031,671.5,1038.5Q462,1046,261,861Q60,676,230,437.5Q400,199,678.5,194Q957,189,1063,432.5Q1169,676,1025,853.5Z" fill="#e3e1c8" stroke="none" stroke-width="10"></path></g><g transform="
        translate(506.88000000000005
        101.376)
        scale(0.85)
                        "><path d="M1025,853.5Q881,1031,671.5,1038.5Q462,1046,261,861Q60,676,230,437.5Q400,199,678.5,194Q957,189,1063,432.5Q1169,676,1025,853.5Z" fill="#e4e4c8" stroke="none" stroke-width="10"></path></g><g transform="
        translate(702.8736
        199.37279999999998)
        scale(0.56)
                        "><path d="M1025,853.5Q881,1031,671.5,1038.5Q462,1046,261,861Q60,676,230,437.5Q400,199,678.5,194Q957,189,1063,432.5Q1169,676,1025,853.5Z" fill="#e5e7c8" stroke="none" stroke-width="10"></path></g><g transform="
        translate(892.1088
        293.9904)
        scale(0.28)
                        "><path d="M1025,853.5Q881,1031,671.5,1038.5Q462,1046,261,861Q60,676,230,437.5Q400,199,678.5,194Q957,189,1063,432.5Q1169,676,1025,853.5Z" fill="#e6eac8" stroke="none" stroke-width="10"></path></g></svg>